<svg id="Capa_1" enable-background="new 0 0 511.982 511.982" height="512" viewBox="0 0 511.982 511.982" width="512" xmlns="http://www.w3.org/2000/svg"><g><path d="m302.957 315.091c11.716-11.716 11.716-30.711 0-42.426l-21.213-21.213-63.64 63.64 21.213 21.213c11.716 11.716 30.711 11.716 42.426 0 3.865-3.865 6.447-8.525 7.762-13.452 4.927-1.315 9.586-3.897 13.452-7.762z" fill="#a44129"/><path d="m260.53 315.091c3.865-3.865 6.447-8.525 7.762-13.452 4.927-1.315 9.586-3.896 13.452-7.762 11.716-11.716 11.716-30.711 0-42.426l-42.426-42.426c-11.716-11.716-30.711-11.716-42.426 0-3.865 3.865-6.447 8.525-7.762 13.452-4.927 1.315-9.586 3.896-13.452 7.762-11.716 11.716-11.716 30.711 0 42.426l42.426 42.426c11.716 11.716 30.711 11.716 42.426 0z" fill="#b6502f"/><path d="m430.236 145.386-31.82 10.606-10.606 31.82 21.213 21.213 42.426-42.426z" fill="#1da575"/><path d="m430.236 145.386-63.64-63.64v84.853l21.214 21.213z" fill="#0abf52"/><path d="m366.596 81.746-21.213-21.213-42.426 42.426 63.64 63.64c23.431-23.432 23.431-61.421-.001-84.853z" fill="#5cc563"/><path d="m151.923 459.911c0-12.028-2.138-23.566-6.053-34.255l-28.185 10.284c2.741 7.479 4.238 15.553 4.239 23.97 0 8.284 6.716 15 15 15 8.284.002 15-6.714 14.999-14.999z" fill="#db2116"/><path d="m145.87 425.657c-5.046-13.775-13.044-26.138-23.225-36.319-18.081-18.081-43.044-29.279-70.574-29.279-8.284-.001-15 6.715-15 15 0 8.284 6.716 15 15 15 19.258.001 36.721 7.835 49.37 20.483 7.12 7.12 12.714 15.766 16.245 25.4 2.84 7.775 11.444 11.781 19.223 8.947 7.783-2.836 11.797-11.449 8.961-19.232z" fill="#ff3a2f"/><path d="m218.104 357.518-31.82 10.606-10.606 31.82 21.213 21.213 42.426-42.426z" fill="#0abf52"/><path d="m218.104 357.518-84.853-84.853-42.426 42.426 42.426 42.427z" fill="#adcb74"/><path d="m133.251 357.518 42.426 42.426 42.426-42.426c-23.431-23.432-61.42-23.432-84.852 0z" fill="#5cc563"/><path d="m483.269 28.713-63.64 63.64c17.574 17.574 46.066 17.574 63.64 0s17.574-46.066 0-63.64z" fill="#ff3a2f"/><path d="m462.056 71.139c17.574-17.574 27.071-36.569 21.213-42.426-17.574-17.574-46.066-17.574-63.64 0s-17.574 46.066 0 63.64c5.858 5.857 24.853-3.64 42.427-21.214z" fill="#ff5a35"/><path d="m260.53 145.386c-11.716 11.716-11.716 30.711 0 42.426l21.213 21.213 42.426-42.426-21.213-21.213c-11.715-11.716-30.71-11.716-42.426 0z" fill="#ffe8c2"/><path d="m366.596 209.025-21.213-21.213-42.426 42.426 21.213 21.213c11.716 11.716 30.711 11.716 42.426 0s11.716-30.71 0-42.426z" fill="#ffba48"/><path d="m331.241 216.096c11.716-11.716 18.047-24.379 14.142-28.284l-21.213-21.213c-3.905-3.905-16.569 2.426-28.284 14.142s-18.047 24.379-14.142 28.284l21.213 21.213c3.905 3.906 16.568-2.426 28.284-14.142z" fill="#ffd185"/><circle cx="281.743" cy="293.878" r="7.5"/><circle cx="239.317" cy="293.878" r="7.5"/><path d="m509.786 2.196c-2.93-2.928-7.678-2.928-10.607 0l-16.294 16.294c-20.547-15.383-49.888-13.749-68.558 4.918-9.916 9.917-15.377 23.101-15.377 37.124 0 11.491 3.672 22.414 10.451 31.441l-10.984 10.984-47.729-47.729c-2.93-2.927-7.678-2.929-10.607 0l-42.427 42.426c-1.406 1.407-2.196 3.314-2.196 5.304s.79 3.896 2.196 5.304l47.729 47.73-10.606 10.606-26.516-26.516c-14.624-14.621-38.412-14.621-53.034.001-14.621 14.621-14.621 38.411 0 53.033l26.516 26.516-10.606 10.606-26.516-26.516c-7.083-7.082-16.5-10.983-26.517-10.983s-19.434 3.901-26.516 10.983c-3.658 3.658-6.514 8.034-8.392 12.822-4.789 1.878-9.165 4.733-12.822 8.391-14.622 14.622-14.622 38.412 0 53.034l26.516 26.516-10.606 10.606-47.73-47.73c-1.406-1.406-3.314-2.196-5.303-2.196s-3.897.79-5.303 2.196l-42.427 42.427c-1.407 1.407-2.197 3.314-2.197 5.304s.79 3.896 2.197 5.304l21.213 21.213c2.929 2.928 7.678 2.928 10.606 0 2.929-2.93 2.929-7.678 0-10.607l-15.91-15.909 31.82-31.82 49.54 49.54c-2.347-.244-4.722-.367-7.114-.367-18.03 0-34.981 7.021-47.729 19.77-2.929 2.93-2.929 7.678 0 10.607l5.303 5.303-10.791 10.791c-19.547-17.047-44.266-26.357-70.39-26.357-6.01 0-11.66 2.341-15.91 6.59-4.25 4.25-6.59 9.9-6.59 15.91 0 12.406 10.093 22.5 22.5 22.5 14.105.001 27.498 4.691 38.438 13.309l-15.903 15.902c-5.785 5.785-9.452 13.115-10.605 21.196l-4.245 29.733c-.691 4.844-2.891 9.238-6.362 12.709-4.25 4.25-9.9 6.591-15.91 6.591s-11.66-2.341-15.91-6.591c-8.772-8.772-8.772-23.046 0-31.819 2.929-2.929 2.929-7.678 0-10.606s-7.678-2.929-10.606.001c-14.621 14.621-14.621 38.411 0 53.032 7.311 7.311 16.914 10.966 26.517 10.966s19.206-3.655 26.517-10.966c5.784-5.784 9.452-13.114 10.605-21.196l4.246-29.734c.691-4.844 2.891-9.238 6.362-12.709l15.903-15.903c8.618 10.94 13.308 24.333 13.309 38.437 0 12.406 10.093 22.5 22.499 22.5 6.012 0 11.662-2.34 15.911-6.59 4.25-4.249 6.59-9.9 6.59-15.91 0-26.123-9.309-50.842-26.356-70.389l10.791-10.791 47.73 47.73c1.464 1.464 3.384 2.196 5.303 2.196s3.839-.732 5.303-2.196l42.427-42.426c1.407-1.407 2.197-3.314 2.197-5.304s-.79-3.896-2.197-5.304l-21.169-21.169c-.014-.015-.029-.03-.044-.045-.044-.044-.089-.088-.133-.133l-26.383-26.383 10.607-10.606 26.516 26.516c7.311 7.311 16.914 10.966 26.517 10.966s19.205-3.655 26.517-10.966c3.657-3.658 6.513-8.034 8.391-12.822 4.789-1.878 9.164-4.733 12.822-8.391 14.621-14.622 14.621-38.412 0-53.034l-26.516-26.516 10.606-10.606 26.516 26.516c7.312 7.311 16.914 10.966 26.517 10.966 9.604 0 19.206-3.655 26.518-10.966 14.621-14.622 14.621-38.412 0-53.034l-26.516-26.516 10.601-10.605 47.729 47.729c1.407 1.406 3.314 2.196 5.304 2.196s3.896-.79 5.304-2.196l42.427-42.427c2.929-2.93 2.929-7.678 0-10.607l-47.729-47.729 10.984-10.984c9.027 6.78 19.951 10.452 31.441 10.452 14.023 0 27.207-5.461 37.124-15.377 18.668-18.669 20.301-48.009 4.918-68.558l16.295-16.295c2.928-2.93 2.928-7.678-.001-10.608zm-367.559 463.019c-1.416 1.416-3.299 2.196-5.302 2.196-4.137 0-7.501-3.364-7.501-7.5 0-20.631-8.055-40.048-22.68-54.673-14.625-14.624-34.041-22.679-54.673-22.68-4.136 0-7.5-3.364-7.5-7.5 0-2.004.78-3.887 2.196-5.303 1.417-1.417 3.3-2.197 5.304-2.197 24.626 0 47.807 9.618 65.271 27.083 17.464 17.464 27.083 40.645 27.082 65.27-.001 2.004-.781 3.888-2.197 5.304zm86.484-86.484-31.82 31.819-52.659-52.66c9.028-6.78 19.955-10.446 31.446-10.446 13.962 0 27.093 5.414 36.994 15.248zm68.942-68.943c-2.79 2.791-6.277 4.804-10.083 5.819-2.594.692-4.62 2.719-5.312 5.313-1.016 3.805-3.027 7.291-5.818 10.081-8.772 8.774-23.047 8.772-31.82 0l-63.64-63.64c-8.773-8.772-8.773-23.047 0-31.819 2.791-2.791 6.277-4.804 10.083-5.819 2.594-.692 4.62-2.719 5.312-5.313 1.016-3.804 3.028-7.29 5.819-10.082 4.25-4.249 9.9-6.59 15.91-6.59s11.66 2.341 15.91 6.591l63.639 63.64c8.774 8.772 8.774 23.046 0 31.819zm9.446-86.013-18.893-18.893c.626-2.707 4.013-9.868 12.983-18.837 8.973-8.974 16.133-12.359 18.837-12.982l18.895 18.895c-.627 2.708-4.015 9.868-12.983 18.836-8.975 8.974-16.135 12.358-18.839 12.981zm-41.265-73.086c4.249-4.25 9.899-6.591 15.91-6.591 6.01 0 11.66 2.341 15.909 6.591l10.936 10.936c-6.251 3.305-12.639 8.443-18.007 13.812s-10.507 11.757-13.812 18.008l-10.936-10.936c-8.773-8.773-8.773-23.047 0-31.82zm102.05 79.549c0 6.011-2.341 11.661-6.591 15.91-4.249 4.25-9.899 6.591-15.91 6.591-6.01 0-11.66-2.341-15.909-6.591l-10.945-10.945c6.254-3.305 12.645-8.432 18.017-13.803 5.368-5.369 10.506-11.757 13.812-18.007l10.936 10.936c4.249 4.249 6.59 9.899 6.59 15.909zm-22.5-159.099 15.91 15.91c9.916 9.917 15.377 23.1 15.377 37.124 0 11.491-3.673 22.415-10.452 31.442l-52.655-52.656zm63.638 127.28-32.119-32.12c9.563-11.923 14.768-26.621 14.768-42.126 0-2.397-.133-4.773-.378-7.124l49.55 49.55zm68.944-111.37c-7.083 7.084-16.5 10.984-26.517 10.984s-19.434-3.9-26.517-10.984c-7.083-7.082-10.983-16.499-10.983-26.516s3.9-19.434 10.984-26.517c7.311-7.312 16.912-10.966 26.516-10.966 9.599 0 19.201 3.654 26.51 10.959 14.627 14.636 14.626 38.422.007 53.04z"/></g></svg>